<svg xmlns="http://www.w3.org/2000/svg" xmlns:xlink="http://www.w3.org/1999/xlink" width="23.821" height="22.32" viewBox="0 0 23.821 22.32">
  <defs>
    <clipPath id="clip-path">
      <rect id="Rectangle_26" data-name="Rectangle 26" width="23.821" height="22.32" fill="none"/>
    </clipPath>
  </defs>
  <g id="Group_10" data-name="Group 10" transform="translate(0 0)">
    <g id="Group_8" data-name="Group 8" transform="translate(0 0)" clip-path="url(#clip-path)">
      <path id="Path_3" data-name="Path 3" d="M19.806,14.265c3.91-1.037,2.3-3.973,4.015-6.157-2.176-.12-2.279-2.281-5.12-2.281a4.238,4.238,0,0,0-1.566.295l-.926.362-.006-1C16.182,1.564,12.9,2.207,11.9,0,10.507,2.346,7.643,1.782,7.622,5.488l-.006,1L6.69,6.121a4.246,4.246,0,0,0-1.566-.295C2.283,5.827,2.178,7.988,0,8.108c1.715,2.184.116,5.122,4.019,6.157l.907.24-.507.789a4.268,4.268,0,0,0-.68,2.317c0,2.239,1.429,2.334,1.41,4.709,1.963-1.351,3.952.814,6.231-2.026l.532-.663.532.663c2.277,2.839,4.263.678,6.225,2.026-.017-2.369,1.416-2.47,1.416-4.709a4.268,4.268,0,0,0-.68-2.317l-.507-.789ZM6.246,20.448c1.526-.147,2.788.5,4.026-1.042l1.641-2.045,1.641,2.045c1.237,1.542,2.5.894,4.021,1.044.419-1.107,1.09-1.778,1.09-2.839a2.851,2.851,0,0,0-.455-1.549l-1.561-2.428,2.792-.741c2.144-.57,1.858-2.182,2.39-3.946-1.107-.678-1.679-1.7-3.131-1.7a2.884,2.884,0,0,0-1.048.2L14.8,8.56,14.783,5.5c-.013-2.165-1.6-2.327-2.933-3.35C10.507,3.2,9.053,3.5,9.042,5.5L9.023,8.56,6.17,7.443a2.865,2.865,0,0,0-1.046-.2c-1.452,0-2.026,1.023-3.133,1.7.532,1.763.253,3.375,2.395,3.946l2.79.741L5.612,16.062a2.849,2.849,0,0,0-.452,1.549c0,1.058.669,1.732,1.086,2.837" transform="translate(0 0)" fill="#fefefe" fill-rule="evenodd"/>
    </g>
  </g>
</svg>
