<svg xmlns="http://www.w3.org/2000/svg" xmlns:xlink="http://www.w3.org/1999/xlink" width="23.066" height="24.096" viewBox="0 0 23.066 24.096">
  <defs>
    <clipPath id="clip-path">
      <rect id="Rectangle_25" data-name="Rectangle 25" width="23.066" height="24.096" fill="none"/>
    </clipPath>
  </defs>
  <g id="Group_5" data-name="Group 5" transform="translate(0 0)">
    <g id="Group_1" data-name="Group 1" transform="translate(0 0)" clip-path="url(#clip-path)">
      <path id="Path_1" data-name="Path 1" d="M8.079,22.1a12.889,12.889,0,0,1-7.65-2.71A2.377,2.377,0,0,1,0,18.722a4.008,4.008,0,0,1,.736-.041c1.325.16,2.641.388,3.971.5a3.8,3.8,0,0,0,3.432-1.718,16.1,16.1,0,0,0,2.648-6.247c.558-2.335.985-4.7,1.547-7.037A3.137,3.137,0,0,1,14.022,1.9a1.425,1.425,0,0,1,1.03-.126,1.731,1.731,0,0,0,1.524-.1,2.159,2.159,0,0,1,1.106-.085c.679.117,1.337.352,2.013.487A2.144,2.144,0,0,1,21.359,3.4c.059.137.167.315.29.354a2.129,2.129,0,0,1,1.414,2.424c-.194,5.822-2.84,11.765-9.21,14.646A13.941,13.941,0,0,1,8.079,22.1M16.91,3.552a1.488,1.488,0,0,0-2.168.436A11.813,11.813,0,0,0,13.794,6.1c-1.277,3.288-1.284,6.971-3.1,10.12a3.832,3.832,0,0,0,.754-.786c1.236-1.759,1.6-3.841,2.182-5.852.631-2.168,1.078-4.469,3.185-5.849.05-.032.064-.123.091-.183" transform="translate(0 1.997)" fill="#fff"/>
      <path id="Path_2" data-name="Path 2" d="M12.456,5.107A3.2,3.2,0,0,0,9.476,3.578,10.707,10.707,0,0,1,7.2,3.007,2.492,2.492,0,0,1,9.4,2.442a.96.96,0,0,0,.779-.352A5.528,5.528,0,0,1,12.753.014c.126-.053.324.064.489.1a1.715,1.715,0,0,1-.292.43c-.688.542-1.417,1.035-2.079,1.6-.42.363-.322.672.228.9,1.156.478,1.533,1.03,1.357,2.061" transform="translate(9.258 0)" fill="#fff"/>
    </g>
  </g>
</svg>
